<svg width="1654" height="458" viewBox="0 0 1654 458" fill="none" xmlns="http://www.w3.org/2000/svg">
<path d="M288.172 19.856C287.52 8.77199 281 3.55598 269.916 6.16399L31.936 70.06C22.808 72.668 18.244 79.188 17.592 88.316L12.376 210.24C11.724 219.368 16.288 226.54 24.764 229.8L106.264 259.792C114.088 263.052 118.652 267.616 120.608 276.744L124.52 291.74C127.78 304.78 119.304 311.3 106.916 305.432L32.588 270.876C21.504 265.66 13.68 270.876 13.028 282.612L1.292 441.048C0.64 451.48 6.508 458 16.94 458H252.312C260.788 458 267.308 454.74 271.872 446.916L359.24 289.784C364.456 280.004 361.848 272.832 352.72 267.616L204.064 188.724C192.98 182.856 191.676 174.38 202.108 166.556L282.304 107.224C289.476 102.008 292.736 95.488 292.084 87.012L288.172 19.856ZM308.384 17.9C308.384 6.81598 314.252 1.59997 324.684 1.59997H362.5C370.976 1.59997 377.496 4.85997 382.06 12.032L430.308 82.448C438.132 94.184 447.912 91.576 452.476 79.188L474.644 14.64C477.904 6.16399 483.772 1.59997 492.9 1.59997L565.924 0.947977C577.008 0.947977 582.876 7.46797 580.92 18.552L552.884 203.72L517.676 443.004C516.372 453.436 510.504 458 500.724 458H321.424C309.036 458 303.82 450.176 309.688 438.44L395.1 275.44C399.664 266.312 397.708 259.14 390.536 253.272L320.772 195.896C314.252 190.028 311.644 184.812 311.644 175.684L308.384 17.9ZM593.308 28.332C595.264 13.988 605.696 11.38 614.824 23.116L698.28 128.74C707.408 139.824 717.188 137.868 719.144 122.872L731.532 16.596C732.836 6.81598 739.356 0.947977 749.136 0.947977L794.124 1.59997C803.904 1.59997 810.424 6.81598 811.728 16.596L883.448 440.396C885.404 451.48 880.188 458 869.104 458H788.256C779.78 458 772.608 454.74 768.044 447.568L690.456 326.296C682.632 313.908 671.548 315.212 669.592 330.86L655.9 442.352C654.596 452.784 648.728 457.348 638.948 457.348L554.188 458C543.104 458 537.888 451.48 539.192 440.396L593.308 28.332ZM826.724 19.204C824.768 8.11996 830.636 1.59997 841.72 1.59997H1163.16C1173.59 1.59997 1178.8 6.81598 1179.46 17.248L1182.72 100.704C1183.37 110.484 1178.8 116.352 1170.98 120.264L1100.56 155.472C1092.74 159.384 1088.83 165.904 1088.18 174.38L1075.79 442.352C1075.14 452.784 1069.92 458 1059.49 458H926.48C916.048 458 910.18 451.48 910.832 441.048L932.348 173.076C933 163.296 929.74 156.776 921.916 152.864L853.456 117.656C846.284 113.744 841.72 108.528 840.416 99.4L826.724 19.204ZM1197.06 19.204C1196.41 8.77199 1202.28 2.25196 1212.71 2.25196L1354.19 1.59997C1364.62 1.59997 1369.84 7.46797 1369.84 17.9L1366.58 136.564C1366.58 146.344 1371.14 152.212 1380.27 154.82L1424.61 166.556C1432.43 168.512 1438.3 173.076 1442.86 178.944L1644.98 437.788C1653.46 448.22 1648.9 458 1635.2 458L1409.61 457.348C1401.14 457.348 1394.62 454.088 1390.05 446.264L1307.25 300.216C1299.42 285.872 1287.69 289.132 1288.34 306.084L1296.16 441.048C1296.82 451.48 1290.3 458 1279.86 458H1129.9C1119.47 458 1112.95 451.48 1113.6 441.048L1125.34 219.368C1125.99 210.892 1129.9 204.372 1137.73 200.46L1194.45 171.772C1202.93 167.208 1206.84 161.992 1206.19 152.212L1197.06 19.204Z" fill="black"/>
</svg>
